<?xml version="1.0" encoding="iso-8859-1"?>
<!-- Generator: Adobe Illustrator 19.0.0, SVG Export Plug-In . SVG Version: 6.00 Build 0)  -->
<svg version="1.1" id="Layer_1" xmlns="http://www.w3.org/2000/svg" xmlns:xlink="http://www.w3.org/1999/xlink" x="0px" y="0px"
	 viewBox="0 0 512 512" style="enable-background:new 0 0 512 512;" xml:space="preserve">
<g>
	<g>
		<path d="M509.066,31.705c-1.875-1.873-4.417-2.924-7.066-2.924c-0.004,0-0.009,0-0.013,0l-223.899,0.286
			c-5.065,0.006-9.326,3.8-9.919,8.831l-8.417,71.496l-0.312,2.67l-2.058,10.905c0,0.001,0,0.001,0,0.002l-15.403,81.66
			c-0.029,0.155-0.055,0.31-0.077,0.466c-0.352,2.505-0.79,4.819-1.336,7.032c-0.142,0.197-0.329,0.445-0.569,0.746
			c-1.174,1.472-3.624,4.206-8.245,8.225c-1.989,1.73-4.372,3.692-7.244,5.903c-14.533,11.18-43.614,30.292-99.627,57.847
			c-0.002,0.001-0.004,0.001-0.006,0.003c-21.658,10.655-46.04,21.933-72.469,33.52c-26.051,11.418-43.54,35-49.783,66.824
			c-0.102,0.341-0.194,0.686-0.26,1.042C0.773,394.752,0,402.493,0,409.902v35c0,21.127,17.144,38.316,38.217,38.316h435.377
			c21.176,0,38.403-17.188,38.403-38.316v-66.48c0-0.008,0.001-0.015,0.001-0.022c0.001-0.06,0.002-0.121,0.002-0.182v-85.341
			v-168.34V38.781C512,36.127,510.944,33.581,509.066,31.705z M60.437,336.689c20.983-9.2,40.706-18.214,58.829-26.887
			l-0.123,82.546c0,0.001,0,0.001,0,0.001l-0.005,3.344H38.217c-6.464,0-12.286-3.386-15.5-8.821
			C26.43,370.203,35.97,347.412,60.437,336.689z M491.997,444.902c0,9.928-8.428,18.316-18.403,18.316H38.217
			c-8.39,0-15.652-6.062-17.653-13.971h400.134c5.522,0,10-4.477,10-10s-4.478-10-10-10H20v-17.976
			c5.262,2.844,11.197,4.432,17.347,4.432c0.276,0,0.552-0.004,0.828-0.01h0.042h90.906h0.072h344.229
			c0.379,0.012,0.757,0.018,1.134,0.018c6.14,0,12.102-1.564,17.439-4.481V444.902z M145.307,395.693
			c40.562-17.789,100.489-28.226,163.754-28.226c64.003,0,123.379,10.382,163.824,28.226H145.307z M492,377.32
			c0,0.02-0.003,0.038-0.003,0.058c0,1.7-0.264,3.349-0.723,4.925c-43.169-21.916-110.174-34.835-182.212-34.835
			c-64.842,0-126.759,10.741-169.841,29.096l0.049-58.405l11.981,11.981c1.953,1.953,4.512,2.929,7.071,2.929
			s5.118-0.976,7.071-2.929c3.905-3.905,3.905-10.237,0-14.143l-19.349-19.349c9.474-4.783,18.415-9.447,26.808-13.985l26.399,26.4
			c1.953,1.953,4.512,2.929,7.071,2.929s5.118-0.977,7.071-2.929c3.905-3.905,3.905-10.237,0-14.142l-22.375-22.376
			c14.622-8.405,27.176-16.325,37.59-23.72c18.81,23.694,42.596,43.451,69.338,57.46c30.715,16.09,65.397,24.595,100.297,24.595
			c32.391,0,64.479-7.369,93.757-21.419V377.32z M492,287.02c-28.851,15.627-61.141,23.86-93.757,23.86
			c-59.878,0-116.697-27.602-153.834-74.279c0.078-0.067,0.146-0.129,0.223-0.196c0.563-0.487,1.11-0.966,1.631-1.431
			c0.092-0.083,0.179-0.162,0.27-0.244c0.473-0.425,0.928-0.84,1.367-1.246c0.097-0.09,0.197-0.181,0.292-0.27
			c0.47-0.438,0.917-0.864,1.349-1.281c0.109-0.105,0.215-0.208,0.321-0.312c0.424-0.413,0.835-0.819,1.223-1.211
			c0.061-0.062,0.119-0.122,0.179-0.184c0.351-0.357,0.686-0.705,1.007-1.044c0.076-0.08,0.154-0.161,0.228-0.24
			c0.34-0.361,0.661-0.712,0.968-1.053c0.078-0.087,0.154-0.172,0.23-0.258c0.302-0.339,0.593-0.671,0.865-0.989
			c0.041-0.048,0.077-0.092,0.117-0.139c0.246-0.291,0.478-0.572,0.7-0.845c0.054-0.067,0.11-0.135,0.163-0.201
			c0.231-0.289,0.448-0.567,0.653-0.836c0.052-0.068,0.102-0.135,0.152-0.201c0.202-0.268,0.395-0.53,0.572-0.779
			c0.021-0.03,0.04-0.057,0.06-0.086c0.164-0.232,0.315-0.453,0.458-0.667c0.034-0.051,0.069-0.103,0.102-0.153
			c0.145-0.22,0.279-0.43,0.403-0.631c0.03-0.049,0.059-0.096,0.088-0.144c0.122-0.201,0.237-0.395,0.339-0.576
			c0.008-0.015,0.015-0.027,0.023-0.042c0.098-0.174,0.185-0.338,0.266-0.493c0.018-0.034,0.036-0.068,0.053-0.101
			c0.079-0.155,0.15-0.3,0.213-0.436c0.014-0.029,0.026-0.057,0.039-0.086c0.062-0.136,0.119-0.265,0.167-0.381
			c0.162-0.393,0.299-0.795,0.41-1.205c0.795-2.944,1.424-5.98,1.929-9.211c0.068-0.438,0.142-0.868,0.206-1.314l13.827-73.303
			l188.446-0.229L492,134.549V287.02z M492,114.549l-212.744,0.259c0.003-0.025,0.006-0.05,0.009-0.076l2.682-22.787h138.751
			c5.522,0,10-4.477,10-10s-4.478-10-10-10H284.3l2.694-22.889L492,48.794V114.549z"/>
	</g>
</g>
<g>
	<g>
		<path d="M384.419,160.093c-32.979,0-59.809,26.83-59.809,59.809c0,32.979,26.83,59.808,59.809,59.808
			c32.978,0,59.808-26.83,59.808-59.808C444.227,186.924,417.397,160.093,384.419,160.093z M384.419,259.71
			c-21.95,0-39.809-17.858-39.809-39.808c0-21.951,17.859-39.809,39.809-39.809s39.808,17.858,39.808,39.809
			C424.227,241.852,406.37,259.71,384.419,259.71z"/>
	</g>
</g>
<g>
	<g>
		<path d="M466.46,79.987c-0.13-0.63-0.32-1.26-0.57-1.87c-0.25-0.6-0.559-1.18-0.92-1.72c-0.36-0.55-0.78-1.06-1.24-1.52
			c-2.319-2.33-5.77-3.39-9.029-2.74c-0.631,0.13-1.261,0.32-1.87,0.57c-0.601,0.25-1.181,0.56-1.721,0.92
			c-0.55,0.37-1.06,0.78-1.52,1.25c-0.46,0.46-0.88,0.97-1.25,1.52c-0.36,0.54-0.67,1.12-0.91,1.72c-0.25,0.61-0.45,1.24-0.57,1.87
			c-0.13,0.65-0.199,1.31-0.199,1.96c0,0.65,0.069,1.31,0.199,1.95c0.119,0.64,0.32,1.27,0.57,1.87c0.24,0.61,0.55,1.19,0.91,1.73
			c0.37,0.55,0.79,1.06,1.25,1.52c0.46,0.46,0.97,0.88,1.52,1.24c0.54,0.36,1.12,0.67,1.721,0.92c0.609,0.25,1.239,0.44,1.87,0.57
			c0.649,0.13,1.31,0.2,1.96,0.2c2.63,0,5.21-1.07,7.069-2.93c0.46-0.46,0.88-0.97,1.24-1.52c0.36-0.54,0.67-1.12,0.92-1.73
			c0.25-0.6,0.441-1.23,0.57-1.87c0.13-0.64,0.2-1.3,0.2-1.95C466.66,81.297,466.59,80.637,466.46,79.987z"/>
	</g>
</g>
<g>
	<g>
		<path d="M466.461,437.298c-0.131-0.64-0.321-1.269-0.571-1.88c-0.25-0.6-0.559-1.18-0.92-1.72c-0.36-0.55-0.78-1.06-1.24-1.52
			c-0.46-0.46-0.97-0.88-1.52-1.25c-0.54-0.36-1.12-0.67-1.73-0.92c-0.6-0.24-1.229-0.44-1.87-0.56c-1.29-0.26-2.619-0.26-3.909,0
			c-0.631,0.12-1.261,0.32-1.87,0.56c-0.601,0.25-1.181,0.56-1.721,0.92c-0.55,0.37-1.06,0.79-1.52,1.25
			c-0.46,0.46-0.88,0.97-1.25,1.52c-0.36,0.54-0.67,1.12-0.91,1.72c-0.25,0.61-0.45,1.24-0.57,1.88c-0.13,0.64-0.199,1.3-0.199,1.95
			s0.069,1.31,0.199,1.95c0.12,0.64,0.32,1.27,0.57,1.87c0.24,0.61,0.55,1.19,0.91,1.73c0.37,0.55,0.79,1.06,1.25,1.52
			c0.46,0.461,0.97,0.88,1.52,1.24c0.54,0.36,1.12,0.67,1.721,0.92c0.609,0.25,1.239,0.45,1.87,0.57c0.649,0.13,1.31,0.2,1.96,0.2
			c2.63,0,5.21-1.07,7.069-2.93c1.86-1.86,2.931-4.44,2.931-7.07C466.661,438.598,466.591,437.938,466.461,437.298z"/>
	</g>
</g>
<g>
</g>
<g>
</g>
<g>
</g>
<g>
</g>
<g>
</g>
<g>
</g>
<g>
</g>
<g>
</g>
<g>
</g>
<g>
</g>
<g>
</g>
<g>
</g>
<g>
</g>
<g>
</g>
<g>
</g>
</svg>
