<?xml version="1.0" encoding="iso-8859-1"?>
<!-- Generator: Adobe Illustrator 19.0.0, SVG Export Plug-In . SVG Version: 6.00 Build 0)  -->
<svg version="1.1" id="Layer_1" xmlns="http://www.w3.org/2000/svg" xmlns:xlink="http://www.w3.org/1999/xlink" x="0px" y="0px"
	 viewBox="0 0 512 512" style="enable-background:new 0 0 512 512;" xml:space="preserve">
<g>
	<g>
		<g>
			<path d="M490.667,128H21.333C9.557,128,0,137.557,0,149.333v341.333C0,502.443,9.557,512,21.333,512h469.333
				c11.776,0,21.333-9.557,21.333-21.333V149.333C512,137.557,502.443,128,490.667,128z"/>
			<path d="M42.667,106.667h426.667c11.776,0,21.333-9.557,21.333-21.333S481.109,64,469.333,64H42.667
				c-11.776,0-21.333,9.557-21.333,21.333S30.891,106.667,42.667,106.667z"/>
			<path d="M85.333,42.667h341.333c11.776,0,21.333-9.557,21.333-21.333S438.443,0,426.667,0H85.333C73.557,0,64,9.557,64,21.333
				S73.557,42.667,85.333,42.667z"/>
		</g>
	</g>
</g>
<g>
</g>
<g>
</g>
<g>
</g>
<g>
</g>
<g>
</g>
<g>
</g>
<g>
</g>
<g>
</g>
<g>
</g>
<g>
</g>
<g>
</g>
<g>
</g>
<g>
</g>
<g>
</g>
<g>
</g>
</svg>
